<?xml version="1.0" standalone="no"?>
<!DOCTYPE svg PUBLIC "-//W3C//DTD SVG 20010904//EN"
 "http://www.w3.org/TR/2001/REC-SVG-20010904/DTD/svg10.dtd">
<svg version="1.0" xmlns="http://www.w3.org/2000/svg"
 width="345.000000pt" height="221.000000pt" viewBox="0 0 345.000000 221.000000"
 preserveAspectRatio="xMidYMid meet">

<g transform="translate(0.000000,221.000000) scale(0.100000,-0.100000)"
fill="#000000" stroke="none">
<path d="M2283 1994 c-7 -3 -13 -21 -13 -40 0 -19 -4 -34 -10 -34 -5 0 -13
-18 -16 -40 -4 -22 -10 -40 -15 -40 -5 0 -9 -11 -9 -25 0 -14 -4 -25 -9 -25
-5 0 -12 -20 -15 -45 -4 -25 -11 -45 -17 -45 -5 0 -9 -11 -9 -25 0 -14 -4 -25
-9 -25 -5 0 -12 -22 -16 -50 -4 -27 -11 -50 -16 -50 -5 0 -9 -7 -9 -15 0 -8
-4 -15 -9 -15 -5 0 -12 -22 -16 -50 -4 -27 -11 -50 -16 -50 -5 0 -9 -11 -9
-25 0 -14 -4 -25 -10 -25 -5 0 -13 -18 -16 -40 -4 -22 -10 -40 -15 -40 -5 0
-9 -11 -9 -25 0 -14 -4 -25 -9 -25 -5 0 -12 -20 -15 -45 -4 -25 -11 -45 -17
-45 -5 0 -9 -11 -9 -25 0 -14 -4 -25 -9 -25 -6 0 -13 -20 -17 -45 -3 -25 -10
-45 -15 -45 -5 0 -9 -9 -9 -20 0 -11 -4 -20 -9 -20 -5 0 -12 -22 -16 -50 -4
-27 -11 -50 -16 -50 -5 0 -9 -11 -9 -25 0 -14 -4 -25 -10 -25 -5 0 -13 -18
-16 -40 -4 -23 -12 -40 -20 -40 -15 0 -204 186 -204 200 0 8 -118 129 -165
168 -17 15 -20 42 -4 42 6 0 25 16 43 35 19 19 37 35 40 35 4 0 14 6 21 13 31
27 44 37 51 37 4 0 21 16 40 35 18 19 37 35 43 35 6 0 24 14 39 30 16 17 36
30 45 30 9 0 18 9 22 19 3 11 15 23 26 26 10 4 19 14 19 23 0 9 12 27 28 40
26 22 27 28 27 111 l0 87 -48 47 c-27 26 -54 47 -61 47 -6 0 -18 9 -26 20 -8
10 -27 22 -42 25 -15 4 -28 11 -28 16 0 5 -9 9 -20 9 -11 0 -20 4 -20 9 0 5
-13 12 -30 16 -16 4 -30 11 -30 16 0 5 -11 9 -25 9 -14 0 -25 4 -25 9 0 6 -20
13 -45 17 -25 3 -45 10 -45 15 0 5 -11 9 -25 9 -14 0 -25 5 -25 10 0 16 -47
11 -54 -6 -3 -9 -6 -29 -6 -45 0 -16 -4 -29 -10 -29 -5 0 -10 -13 -10 -30 0
-16 -4 -30 -9 -30 -5 0 -12 -31 -16 -70 -4 -38 -11 -70 -16 -70 -5 0 -9 -13
-9 -30 0 -16 -4 -30 -9 -30 -5 0 -12 -31 -16 -70 -4 -38 -11 -70 -16 -70 -5 0
-9 -13 -9 -30 0 -16 -4 -30 -9 -30 -5 0 -12 -31 -16 -70 -4 -38 -11 -70 -16
-70 -5 0 -9 -18 -9 -40 0 -22 -4 -40 -9 -40 -5 0 -12 -29 -16 -65 -3 -36 -11
-65 -16 -65 -5 0 -9 -16 -9 -35 0 -19 -4 -35 -9 -35 -5 0 -13 -29 -16 -65 -4
-36 -11 -65 -16 -65 -5 0 -9 -16 -9 -35 0 -53 -18 -42 -26 15 -4 28 -10 50
-15 50 -5 0 -9 16 -9 35 0 19 -4 35 -9 35 -5 0 -12 29 -16 65 -3 36 -11 65
-16 65 -5 0 -9 16 -9 35 0 19 -4 35 -9 35 -5 0 -13 29 -16 65 -4 36 -11 65
-16 65 -5 0 -9 16 -9 35 0 19 -4 35 -9 35 -5 0 -13 29 -16 65 -4 36 -11 65
-16 65 -5 0 -9 16 -9 35 0 19 -4 35 -9 35 -5 0 -13 29 -16 65 -4 36 -11 65
-15 65 -4 0 -11 29 -15 65 -3 36 -11 65 -16 65 -5 0 -9 9 -9 21 0 48 -9 49
-324 49 l-296 0 -6 -25 c-14 -56 -18 -55 281 -55 l275 0 0 -35 c0 -19 5 -35
10 -35 6 0 10 -16 10 -35 0 -19 4 -35 9 -35 5 0 13 -29 16 -65 4 -36 11 -65
16 -65 5 0 9 -16 9 -35 0 -19 4 -35 9 -35 5 0 13 -29 16 -65 4 -36 11 -65 15
-65 4 0 11 -29 15 -65 3 -36 11 -65 16 -65 5 0 9 -16 9 -35 0 -19 4 -35 9 -35
5 0 12 -29 16 -65 3 -36 11 -65 16 -65 5 0 9 -16 9 -35 0 -19 4 -35 9 -35 5 0
13 -29 16 -65 4 -36 11 -65 16 -65 5 0 9 -16 9 -35 0 -19 4 -35 9 -35 5 0 13
-29 16 -65 4 -36 11 -65 16 -65 5 0 9 -9 9 -21 0 -26 23 -49 48 -49 23 0 32
18 32 66 0 19 5 34 10 34 6 0 10 16 10 35 0 19 4 35 9 35 5 0 12 34 16 75 4
41 11 75 16 75 5 0 9 16 9 35 0 19 4 35 9 35 5 0 13 29 16 65 4 36 11 65 16
65 5 0 9 14 9 30 0 17 4 30 9 30 5 0 12 32 16 70 4 39 11 70 16 70 5 0 9 14 9
30 0 17 4 30 9 30 5 0 12 34 16 75 4 41 11 75 16 75 5 0 9 16 9 35 0 19 4 35
9 35 5 0 12 29 16 65 3 36 11 65 16 65 5 0 9 16 9 35 0 19 4 35 9 35 4 0 11
27 15 60 6 51 10 60 26 60 11 0 20 -4 20 -10 0 -5 11 -10 25 -10 14 0 25 -4
25 -10 0 -5 18 -13 40 -16 22 -4 40 -10 40 -15 0 -5 7 -9 15 -9 8 0 15 -4 15
-9 0 -5 16 -12 35 -15 19 -4 35 -11 35 -16 0 -6 7 -10 15 -10 8 0 15 -4 15 -9
0 -5 10 -13 22 -17 11 -3 38 -23 60 -44 32 -33 38 -45 38 -81 0 -32 -6 -47
-25 -65 -14 -13 -25 -30 -25 -38 0 -8 -10 -18 -21 -21 -12 -4 -41 -26 -63 -50
-23 -23 -51 -45 -63 -49 -12 -4 -25 -16 -28 -26 -3 -10 -16 -22 -27 -26 -12
-3 -32 -17 -45 -30 -13 -13 -28 -24 -34 -24 -5 0 -29 -20 -52 -44 -23 -24 -53
-47 -67 -51 -31 -10 -50 -29 -50 -50 0 -9 56 -71 125 -139 69 -68 125 -129
125 -135 0 -6 4 -11 9 -11 5 0 12 -9 16 -19 3 -11 15 -23 25 -26 10 -3 22 -15
25 -25 3 -10 15 -22 25 -25 10 -3 22 -15 25 -25 3 -10 15 -22 25 -25 10 -3 22
-15 25 -25 3 -10 15 -22 25 -25 10 -3 22 -15 25 -26 4 -13 15 -19 36 -19 38 0
59 20 66 65 3 19 10 35 14 35 5 0 9 11 9 25 0 14 4 25 9 25 5 0 12 20 15 45 4
25 11 45 17 45 5 0 9 11 9 25 0 14 4 25 9 25 5 0 12 23 16 50 4 28 11 50 16
50 5 0 9 7 9 15 0 8 4 15 9 15 5 0 12 23 16 50 4 28 11 50 16 50 5 0 9 11 9
25 0 14 4 25 10 25 5 0 13 18 16 40 4 22 10 40 15 40 5 0 9 11 9 25 0 14 4 25
9 25 5 0 11 18 15 40 3 22 11 40 16 40 6 0 10 11 10 25 0 14 4 25 9 25 5 0 12
23 16 50 4 28 11 50 16 50 5 0 9 9 9 20 0 11 4 20 9 20 5 0 12 23 16 50 4 28
11 50 16 50 5 0 9 11 9 25 0 14 4 25 9 25 5 0 12 14 16 30 8 36 25 40 25 5 0
-14 4 -25 9 -25 5 0 12 -25 16 -55 3 -30 10 -55 14 -55 5 0 11 -27 15 -60 4
-33 11 -60 16 -60 6 0 10 -16 10 -35 0 -19 4 -35 9 -35 5 0 13 -25 16 -55 4
-30 11 -55 16 -55 5 0 9 -11 9 -25 0 -14 4 -25 9 -25 4 0 11 -27 15 -60 4 -33
11 -60 16 -60 6 0 10 -15 10 -34 0 -19 5 -36 10 -38 6 -2 13 -27 17 -56 3 -28
10 -52 14 -52 5 0 9 -11 9 -25 0 -14 4 -25 9 -25 4 0 11 -27 15 -60 4 -33 11
-60 16 -60 6 0 10 -13 10 -30 0 -16 4 -30 9 -30 5 0 12 -21 16 -47 4 -25 13
-52 20 -60 20 -20 520 -19 541 1 19 19 18 52 -2 60 -9 3 -121 6 -250 6 l-234
0 0 25 c0 14 -4 25 -9 25 -4 0 -11 27 -15 60 -4 33 -11 60 -16 60 -6 0 -10 16
-10 35 0 19 -4 35 -9 35 -5 0 -13 25 -16 55 -4 30 -11 55 -16 55 -5 0 -9 11
-9 25 0 14 -4 25 -9 25 -4 0 -11 27 -15 60 -4 33 -11 60 -16 60 -6 0 -10 14
-10 30 0 17 -4 30 -10 30 -5 0 -12 27 -16 60 -4 33 -11 60 -15 60 -5 0 -9 11
-9 25 0 14 -4 25 -9 25 -4 0 -11 27 -15 60 -4 33 -11 60 -16 60 -6 0 -10 14
-10 30 0 17 -4 30 -10 30 -5 0 -12 27 -16 60 -4 33 -11 60 -15 60 -5 0 -9 11
-9 25 0 14 -4 25 -9 25 -4 0 -11 27 -15 60 -4 33 -11 60 -16 60 -5 0 -10 12
-12 28 -2 21 -9 27 -28 29 -14 1 -31 -1 -37 -3z"/>
</g>
</svg>
