<?xml version="1.0" standalone="no"?>
<!DOCTYPE svg PUBLIC "-//W3C//DTD SVG 20010904//EN"
 "http://www.w3.org/TR/2001/REC-SVG-20010904/DTD/svg10.dtd">
<svg version="1.0" xmlns="http://www.w3.org/2000/svg"
 width="68.000000pt" height="27.000000pt" viewBox="0 0 68.000000 27.000000"
 preserveAspectRatio="xMidYMid meet">

<g transform="translate(0.000000,27.000000) scale(0.100000,-0.100000)"
fill="#000000" stroke="none">
<path d="M97 103 c22 -66 30 -72 47 -32 22 55 28 79 18 79 -5 0 -15 -19 -22
-42 l-13 -43 -14 43 c-8 23 -19 42 -23 42 -5 0 -2 -21 7 -47z"/>
<path d="M200 135 c-10 -12 -6 -13 24 -8 24 4 36 2 36 -6 0 -6 -11 -11 -24
-11 -13 0 -29 -7 -37 -16 -20 -24 1 -49 45 -51 36 -1 36 -1 36 41 0 23 -5 47
-12 54 -16 16 -53 15 -68 -3z m58 -52 c-4 -22 -48 -31 -48 -10 0 19 10 27 32
27 13 0 18 -6 16 -17z"/>
<path d="M310 94 c0 -30 5 -54 10 -54 6 0 10 20 10 45 0 33 4 45 15 45 8 0 15
4 15 9 0 5 -11 9 -25 9 -24 0 -25 -4 -25 -54z"/>
<path d="M390 136 c-11 -14 -9 -15 18 -10 17 4 32 1 36 -5 5 -7 -2 -11 -16
-11 -29 0 -48 -17 -48 -42 0 -20 0 -20 50 -23 l35 -2 -5 51 c-4 46 -8 51 -31
54 -14 2 -31 -4 -39 -12z m58 -53 c5 -16 -22 -27 -44 -19 -13 5 -14 9 -4 22
15 17 41 15 48 -3z"/>
<path d="M495 140 c3 -5 18 -10 31 -10 l26 0 -31 -39 c-17 -21 -31 -42 -31
-45 0 -3 20 -6 45 -6 50 0 62 17 15 22 l-31 3 30 35 c17 19 30 38 31 43 0 4
-21 7 -46 7 -27 0 -43 -4 -39 -10z"/>
</g>
</svg>
